<svg width="562" height="387" viewBox="0 0 562 387" fill="none" xmlns="http://www.w3.org/2000/svg">
<path d="M366.446 45C333.999 45 307.442 70.2158 305.301 102.12C305.209 103.496 305.162 104.884 305.162 106.284C305.162 124.554 313.157 140.956 325.839 152.184L335.416 159.143L384.027 194.46L427.73 226.212L451.953 243.812L454.123 245.388C464.025 252.257 476.049 256.283 489.013 256.283C499.998 256.283 510.309 253.392 519.225 248.331L530.325 240.266C542.597 229.059 550.297 212.928 550.297 194.999C550.297 176.279 541.903 159.519 528.674 148.278L521.113 142.785L488.133 118.823L427.73 74.9376L404.197 57.8404L401.234 55.6876C395.3 51.6537 388.517 48.6214 381.393 46.8359C376.609 45.6368 371.602 45 366.446 45Z" fill="#34A853" stroke="#1E1E1E" stroke-opacity="0.956863" stroke-width="9.33847"/>
<path d="M427.73 226.213L384.027 194.461L336.03 229.333L325.309 237.122C312.935 248.335 305.162 264.534 305.162 282.548C305.162 284.391 305.243 286.215 305.403 288.017C308.17 319.301 334.443 343.831 366.446 343.831C371.146 343.831 375.722 343.303 380.118 342.301C387.8 340.55 395.393 337.798 401.839 333.617L403.216 332.617L405.802 330.738L427.73 314.806L488.699 270.51L519.225 248.331C510.309 253.393 499.998 256.283 489.013 256.283C476.049 256.283 464.025 252.258 454.123 245.388C453.388 244.879 452.665 244.353 451.954 243.812L427.73 226.213Z" fill="#F9AB00" stroke="#1E1E1E" stroke-opacity="0.956863" stroke-width="9.33847"/>
<path d="M159.688 55.8171L157.498 57.4082L133.568 74.7943L72.7483 118.983L38.5684 143.816C48.2404 137.432 59.8285 133.715 72.2847 133.715C85.634 133.715 98.3307 137.636 108.396 144.882L108.471 144.937L133.568 163.171L177.42 195.031L231.039 156.075L231.052 156.065C246.375 144.925 256.136 126.677 256.136 106.284C256.136 104.641 256.071 103.013 255.944 101.402C253.457 69.8384 227.055 45 194.852 45C189.947 45 185.176 45.5763 180.605 46.6648C173.042 48.4654 165.9 51.5319 159.688 55.8171Z" fill="#EA4335" stroke="#1E1E1E" stroke-opacity="0.956863" stroke-width="9.33847"/>
<path d="M177.419 195.032L133.567 163.171L108.47 144.937L108.395 144.882C98.3297 137.636 85.6331 133.716 72.2837 133.716C59.8275 133.716 48.2394 137.432 38.5674 143.816L34.1048 147.058C20.0237 158.287 11 175.589 11 194.999C11 212.119 18.02 227.6 29.3384 238.719L44.0437 249.403L73.3137 270.669L133.567 314.446L153.79 329.138L159.553 333.325L159.554 333.326C165.766 337.659 173.097 340.392 180.697 342.188C185.24 343.263 189.979 343.831 194.851 343.831C227.022 343.831 253.403 319.043 255.936 287.524C256.068 285.883 256.135 284.223 256.135 282.548C256.135 265.563 249.225 250.192 238.064 239.092L222.758 227.972L177.419 195.032Z" fill="#4285F4" stroke="#1E1E1E" stroke-opacity="0.956863" stroke-width="9.33847"/>
</svg>
